<svg xmlns="http://www.w3.org/2000/svg" xmlns:xlink="http://www.w3.org/1999/xlink" width="500" zoomAndPan="magnify" viewBox="0 0 375 131.249995" height="175" preserveAspectRatio="xMidYMid meet" version="1.0"><defs><g/><clipPath id="3b98b6df74"><path d="M 1.066406 0 L 373.933594 0 L 373.933594 130.503906 L 1.066406 130.503906 Z M 1.066406 0 " clip-rule="nonzero"/></clipPath><clipPath id="d5a298feac"><path d="M 351 42 L 373.933594 42 L 373.933594 72 L 351 72 Z M 351 42 " clip-rule="nonzero"/></clipPath></defs><g clip-path="url(#3b98b6df74)"><path fill="#ffffff" d="M 1.066406 0 L 373.933594 0 L 373.933594 137.960938 L 1.066406 137.960938 Z M 1.066406 0 " fill-opacity="1" fill-rule="nonzero"/><path fill="#ffffff" d="M 1.066406 0 L 373.933594 0 L 373.933594 130.503906 L 1.066406 130.503906 Z M 1.066406 0 " fill-opacity="1" fill-rule="nonzero"/><path fill="#ffffff" d="M 1.066406 0 L 373.933594 0 L 373.933594 130.503906 L 1.066406 130.503906 Z M 1.066406 0 " fill-opacity="1" fill-rule="nonzero"/></g><g fill="#000000" fill-opacity="0.4"><g transform="translate(11.64269, 71.402538)"><g><path d="M 8.84375 16.660156 C 16.03125 16.660156 23.691406 12.003906 29.769531 6.710938 C 35.773438 8.527344 41.773438 10.503906 48.089844 10.503906 C 52.671875 10.503906 56.855469 8.605469 58.988281 5.527344 C 59.855469 4.265625 59.855469 4.265625 59.855469 3.710938 C 59.855469 3.160156 59.226562 3 58.75 3.160156 C 58.277344 3.316406 57.566406 4.34375 57.171875 4.738281 C 54.722656 7.1875 51.40625 8.132812 48.25 8.132812 C 45.246094 8.132812 38.296875 6.792969 31.664062 4.894531 C 42.640625 -4.5 54.25 -25.664062 54.25 -39.957031 C 54.25 -49.195312 49.195312 -54.488281 39.957031 -54.488281 C 22.503906 -54.488281 5.765625 -37.507812 5.765625 -21.164062 C 5.765625 -15.398438 8.605469 -10.976562 14.609375 -10.976562 C 22.269531 -10.976562 28.507812 -19.503906 30.875 -25.585938 C 31.507812 -27.164062 30.085938 -28.03125 28.347656 -28.03125 C 27.402344 -28.03125 26.769531 -27.480469 26.453125 -26.53125 C 24.402344 -20.6875 19.503906 -14.292969 13.976562 -14.292969 C 9.792969 -14.292969 8.6875 -17.847656 8.6875 -21.164062 C 8.6875 -35.457031 24.085938 -51.800781 39.007812 -51.878906 C 46.589844 -51.878906 50.539062 -47.539062 50.539062 -39.957031 C 50.539062 -27.796875 38.613281 -8.132812 27.242188 3.710938 C 19.820312 2.210938 19.664062 1.894531 15.953125 1.894531 C 8.765625 1.894531 1.738281 6.394531 1.738281 12.003906 C 1.738281 15.636719 5.449219 16.660156 8.84375 16.660156 Z M 7.976562 15.003906 C 5.765625 15.003906 3.472656 13.976562 3.472656 11.925781 C 3.472656 7.34375 10.1875 3.789062 15.714844 3.789062 C 18.242188 3.789062 22.269531 4.578125 25.585938 5.449219 L 24.402344 6.554688 C 19.503906 11.214844 13.1875 15.003906 7.976562 15.003906 Z M 7.976562 15.003906 "/></g></g></g><g fill="#000000" fill-opacity="0.4"><g transform="translate(64.779573, 71.402538)"><g><path d="M 17.136719 0.394531 C 24.164062 0.394531 29.929688 -10.027344 33.246094 -14.84375 C 33.480469 -15.242188 33.402344 -15.554688 33.007812 -15.792969 C 32.375 -16.1875 31.746094 -15.160156 31.507812 -14.84375 C 28.113281 -10.027344 23.136719 -1.34375 17.292969 -1.34375 C 12.871094 -1.34375 21.398438 -17.453125 25.347656 -26.925781 C 25.742188 -27.953125 25.191406 -28.585938 23.691406 -28.824219 C 22.191406 -29.058594 21.480469 -28.347656 20.769531 -26.925781 C 18.636719 -22.820312 16.898438 -19.425781 14.84375 -14.84375 C 13.03125 -10.820312 4.816406 -1.738281 2.449219 -1.738281 C -0.078125 -1.738281 5.527344 -12.871094 12.554688 -26.691406 C 13.34375 -28.191406 11.84375 -28.664062 10.820312 -28.742188 C 9.476562 -28.824219 8.605469 -27.953125 7.898438 -26.769531 C 4.183594 -21.003906 -6.316406 0.078125 2.449219 0.078125 C 5.527344 0.078125 10.265625 -4.265625 12.714844 -7.816406 C 11.765625 -2.289062 13.582031 0.394531 17.136719 0.394531 Z M 17.136719 0.394531 "/></g></g></g><g fill="#000000" fill-opacity="0.4"><g transform="translate(94.703671, 71.402538)"><g><path d="M 20.292969 0.394531 C 26.21875 0.394531 31.347656 -6.554688 36.324219 -14.84375 C 36.5625 -15.242188 36.402344 -15.871094 35.773438 -15.871094 C 35.375 -15.871094 34.824219 -15.242188 34.585938 -14.84375 C 30.242188 -7.660156 25.742188 -1.34375 20.53125 -1.34375 C 19.582031 -1.34375 18.792969 -2.054688 18.792969 -3.238281 C 18.792969 -5.921875 21.003906 -10.976562 22.585938 -14.609375 C 23.925781 -17.6875 28.113281 -26.691406 28.113281 -27.480469 C 28.113281 -28.742188 27.324219 -29.296875 26.296875 -29.296875 C 24.796875 -29.296875 24.558594 -28.980469 22.425781 -25.269531 C 20.453125 -27.558594 18.714844 -28.980469 16.347656 -28.980469 C 8.921875 -28.980469 -0.078125 -15.242188 -0.078125 -6.949219 C -0.078125 -3.078125 1.421875 0.15625 4.421875 0.15625 C 8.054688 0.15625 13.109375 -5.605469 15.792969 -9.398438 C 15.476562 -7.898438 15.320312 -6.632812 15.320312 -5.449219 C 15.320312 -1.578125 17.058594 0.394531 20.292969 0.394531 Z M 4.894531 -1.738281 C 3.710938 -1.738281 3.394531 -2.605469 3.394531 -3.949219 C 3.394531 -10.582031 12.160156 -25.742188 18.003906 -25.742188 C 19.582031 -25.742188 20.847656 -24.402344 21.480469 -23.214844 C 20.53125 -21.164062 18.476562 -17.136719 17.53125 -15.082031 C 15.953125 -11.132812 8.371094 -1.738281 4.894531 -1.738281 Z M 4.894531 -1.738281 "/></g></g></g><g fill="#000000" fill-opacity="0.4"><g transform="translate(127.707017, 71.402538)"><g><path d="M 12.320312 -32.457031 C 13.660156 -31.746094 14.925781 -32.21875 15.554688 -33.007812 C 16.898438 -34.980469 15.320312 -37.429688 13.1875 -37.191406 C 10.738281 -36.957031 10.1875 -33.480469 12.320312 -32.457031 Z M 4.027344 0.394531 C 9.792969 0.394531 14.765625 -6.871094 19.976562 -14.84375 C 20.214844 -15.242188 20.058594 -15.714844 19.582031 -15.871094 C 19.109375 -16.03125 18.476562 -15.242188 18.242188 -14.84375 C 13.660156 -8.054688 9.238281 -1.34375 4.027344 -1.34375 C 1.027344 -1.34375 3.472656 -9.398438 5.605469 -14.53125 C 6.871094 -17.53125 11.6875 -25.902344 11.925781 -27.164062 C 12.082031 -28.429688 11.054688 -28.742188 10.027344 -28.742188 C 9.476562 -28.742188 8.292969 -28.507812 7.738281 -27.71875 C 6.554688 -26.21875 4.265625 -23.136719 0.867188 -14.53125 C -1.894531 -7.660156 -1.972656 0.394531 4.027344 0.394531 Z M 4.027344 0.394531 "/></g></g></g><g fill="#000000" fill-opacity="0.4"><g transform="translate(144.366666, 71.402538)"><g/></g></g><g fill="#000000" fill-opacity="0.4"><g transform="translate(161.736904, 71.402538)"><g><path d="M 42.957031 13.660156 C 44.773438 13.738281 45.40625 13.265625 45.484375 11.925781 C 45.722656 7.816406 46.984375 2.921875 48.878906 -2.367188 C 49.90625 -1.972656 50.855469 -1.816406 51.800781 -1.816406 C 58.671875 -1.738281 62.226562 -5.84375 67.988281 -14.84375 C 68.070312 -15.003906 68.226562 -15.554688 67.832031 -15.792969 C 67.359375 -16.03125 66.882812 -15.871094 66.253906 -14.84375 C 60.488281 -6.082031 57.644531 -3.472656 51.960938 -3.554688 C 51.171875 -3.554688 50.378906 -3.710938 49.511719 -4.027344 C 57.882812 -26.691406 75.648438 -54.882812 64.988281 -54.882812 C 54.644531 -54.882812 43.195312 -31.507812 31.429688 -15.476562 C 26.058594 -18.871094 20.292969 -21.714844 14.371094 -21.792969 C -1.972656 -22.03125 -5.449219 0.789062 12.398438 1.105469 C 19.582031 1.261719 26.375 -4.578125 32.769531 -12.476562 C 37.035156 -9.476562 41.0625 -6.316406 44.695312 -4.265625 C 42.640625 1.5 41.21875 6.949219 40.824219 11.6875 C 40.746094 12.714844 41.535156 13.582031 42.957031 13.660156 Z M 45.40625 -6 C 42.011719 -8.054688 38.0625 -11.054688 33.875 -13.898438 C 46.195312 -29.691406 56.617188 -52.355469 63.648438 -52.277344 C 69.253906 -52.195312 53.617188 -27.71875 45.40625 -6 Z M 12.476562 -0.632812 C -2.289062 -0.949219 0.867188 -20.214844 14.292969 -20.058594 C 19.898438 -19.976562 25.269531 -17.292969 30.402344 -14.054688 C 24.480469 -6.238281 18.476562 -0.472656 12.476562 -0.632812 Z M 12.476562 -0.632812 "/></g></g></g><g fill="#000000" fill-opacity="0.4"><g transform="translate(226.401244, 71.402538)"><g><path d="M -1.894531 0.394531 C -0.316406 0.394531 -0.15625 -0.15625 0.15625 -0.472656 C 0.710938 -1.738281 2.367188 -6 3.789062 -9.082031 C 7.660156 -17.292969 14.054688 -26.21875 17.453125 -26.21875 C 19.109375 -26.21875 18.558594 -24.953125 16.425781 -20.136719 C 14.214844 -15.160156 11.609375 -8.6875 11.609375 -4.265625 C 11.609375 -1.261719 13.660156 0.394531 16.265625 0.394531 C 23.53125 0.394531 30.085938 -11.765625 32.296875 -14.84375 C 32.375 -15.003906 32.535156 -15.476562 32.140625 -15.714844 C 31.664062 -16.03125 31.429688 -15.953125 30.558594 -14.84375 C 28.113281 -11.6875 22.664062 -1.34375 16.347656 -1.34375 C 12.238281 -1.34375 18.558594 -13.898438 21.085938 -20.136719 C 23.453125 -26.058594 21.714844 -28.902344 18.792969 -28.902344 C 14.449219 -28.902344 10.265625 -23.214844 8.605469 -20.53125 C 10.503906 -24.636719 11.132812 -26.058594 11.527344 -27.636719 C 11.765625 -28.585938 10.660156 -29.21875 9.949219 -29.21875 C 8.210938 -29.21875 7.660156 -28.347656 7.265625 -27.636719 C 6.316406 -25.980469 4.738281 -23.214844 2.605469 -17.453125 C 0.472656 -11.765625 -2.921875 -4.105469 -3.394531 -0.710938 C -3.472656 -0.078125 -2.765625 0.394531 -1.894531 0.394531 Z M -1.894531 0.394531 "/></g></g></g><g fill="#000000" fill-opacity="0.4"><g transform="translate(255.37788, 71.402538)"><g><path d="M 3.949219 0.394531 C 10.421875 0.394531 15.398438 -7.898438 20.058594 -14.84375 C 20.292969 -15.242188 20.214844 -15.554688 19.820312 -15.792969 C 19.269531 -16.109375 18.636719 -15.320312 18.320312 -14.84375 C 13.425781 -7.738281 9.476562 -1.34375 3.949219 -1.34375 C -0.710938 -1.34375 7.660156 -19.347656 14.214844 -31.902344 L 16.820312 -31.902344 C 17.609375 -31.902344 17.6875 -32.21875 17.847656 -32.691406 C 17.925781 -33.007812 17.847656 -33.5625 17.453125 -33.5625 L 15.082031 -33.5625 C 17.214844 -37.667969 19.109375 -40.984375 20.058594 -42.722656 C 20.375 -43.351562 19.582031 -43.984375 19.03125 -44.222656 C 18.164062 -44.617188 17.214844 -44.695312 16.425781 -43.589844 C 15.871094 -42.800781 13.582031 -38.773438 10.820312 -33.640625 L 7.898438 -33.640625 C 7.265625 -33.640625 6.949219 -33.640625 6.710938 -32.851562 C 6.632812 -32.535156 6.710938 -31.980469 7.105469 -31.980469 L 9.949219 -31.980469 C 5.6875 -23.847656 0.710938 -13.660156 -0.078125 -8.84375 C -1.105469 -2.765625 0.238281 0.394531 3.949219 0.394531 Z M 3.949219 0.394531 "/></g></g></g><g fill="#000000" fill-opacity="0.4"><g transform="translate(272.116466, 71.402538)"><g><path d="M 12.320312 -32.457031 C 13.660156 -31.746094 14.925781 -32.21875 15.554688 -33.007812 C 16.898438 -34.980469 15.320312 -37.429688 13.1875 -37.191406 C 10.738281 -36.957031 10.1875 -33.480469 12.320312 -32.457031 Z M 4.027344 0.394531 C 9.792969 0.394531 14.765625 -6.871094 19.976562 -14.84375 C 20.214844 -15.242188 20.058594 -15.714844 19.582031 -15.871094 C 19.109375 -16.03125 18.476562 -15.242188 18.242188 -14.84375 C 13.660156 -8.054688 9.238281 -1.34375 4.027344 -1.34375 C 1.027344 -1.34375 3.472656 -9.398438 5.605469 -14.53125 C 6.871094 -17.53125 11.6875 -25.902344 11.925781 -27.164062 C 12.082031 -28.429688 11.054688 -28.742188 10.027344 -28.742188 C 9.476562 -28.742188 8.292969 -28.507812 7.738281 -27.71875 C 6.554688 -26.21875 4.265625 -23.136719 0.867188 -14.53125 C -1.894531 -7.660156 -1.972656 0.394531 4.027344 0.394531 Z M 4.027344 0.394531 "/></g></g></g><g fill="#000000" fill-opacity="0.4"><g transform="translate(288.776104, 71.402538)"><g><path d="M 8.371094 26.613281 C 15.082031 26.613281 21.242188 16.109375 21.242188 9.238281 C 21.242188 7.34375 20.847656 5.84375 20.214844 4.578125 C 25.742188 -0.238281 30.402344 -7.976562 34.980469 -14.84375 C 35.21875 -15.242188 35.140625 -15.554688 34.746094 -15.792969 C 34.113281 -16.1875 33.402344 -15.082031 33.246094 -14.84375 C 29.769531 -9.871094 24.480469 -1.027344 19.347656 3.316406 C 18.320312 1.894531 16.660156 0.789062 14.609375 0.789062 C 16.425781 -3.316406 27.324219 -25.507812 27.875 -27.007812 C 28.269531 -28.03125 27.480469 -29.375 25.980469 -29.375 C 25.191406 -29.375 24.242188 -28.902344 23.53125 -27.636719 L 22.425781 -25.269531 C 20.453125 -27.558594 18.953125 -28.980469 16.347656 -28.980469 C 9.316406 -28.980469 -0.078125 -15.476562 -0.078125 -6.949219 C -0.078125 -3.078125 1.421875 0.15625 4.421875 0.15625 C 7.738281 0.15625 11.925781 -4.34375 14.6875 -7.898438 C 9.003906 3.160156 3.949219 14.136719 3.949219 20.214844 C 3.949219 24.003906 5.6875 26.613281 8.371094 26.613281 Z M 4.894531 -1.738281 C 0.789062 -1.738281 8.6875 -25.742188 18.003906 -25.742188 C 19.582031 -25.742188 20.847656 -24.402344 21.480469 -23.296875 C 21.792969 -23.609375 17.6875 -15.476562 17.53125 -15.082031 C 15.160156 -10.1875 8.371094 -1.738281 4.894531 -1.738281 Z M 14.925781 5.6875 C 13.820312 5.6875 13.109375 5.371094 12.714844 4.976562 C 13.109375 4.105469 13.425781 3.316406 13.660156 2.683594 C 15.160156 1.894531 17.136719 2.765625 18.320312 4.105469 C 17.058594 5.132812 15.953125 5.6875 14.925781 5.6875 Z M 8.84375 24.953125 C 4.183594 24.953125 7.976562 15.242188 12.003906 6.554688 C 12.554688 6.949219 13.503906 7.34375 14.53125 7.34375 C 15.953125 7.34375 17.292969 6.632812 19.109375 5.371094 C 19.582031 6.394531 19.820312 7.660156 19.820312 9.160156 C 19.820312 15.003906 13.820312 24.953125 8.84375 24.953125 Z M 8.84375 24.953125 "/></g></g></g><g fill="#000000" fill-opacity="0.4"><g transform="translate(320.437199, 71.402538)"><g><path d="M 17.136719 0.394531 C 24.164062 0.394531 29.929688 -10.027344 33.246094 -14.84375 C 33.480469 -15.242188 33.402344 -15.554688 33.007812 -15.792969 C 32.375 -16.1875 31.746094 -15.160156 31.507812 -14.84375 C 28.113281 -10.027344 23.136719 -1.34375 17.292969 -1.34375 C 12.871094 -1.34375 21.398438 -17.453125 25.347656 -26.925781 C 25.742188 -27.953125 25.191406 -28.585938 23.691406 -28.824219 C 22.191406 -29.058594 21.480469 -28.347656 20.769531 -26.925781 C 18.636719 -22.820312 16.898438 -19.425781 14.84375 -14.84375 C 13.03125 -10.820312 4.816406 -1.738281 2.449219 -1.738281 C -0.078125 -1.738281 5.527344 -12.871094 12.554688 -26.691406 C 13.34375 -28.191406 11.84375 -28.664062 10.820312 -28.742188 C 9.476562 -28.824219 8.605469 -27.953125 7.898438 -26.769531 C 4.183594 -21.003906 -6.316406 0.078125 2.449219 0.078125 C 5.527344 0.078125 10.265625 -4.265625 12.714844 -7.816406 C 11.765625 -2.289062 13.582031 0.394531 17.136719 0.394531 Z M 17.136719 0.394531 "/></g></g></g><g clip-path="url(#d5a298feac)"><g fill="#000000" fill-opacity="0.4"><g transform="translate(350.361302, 71.402538)"><g><path d="M 7.898438 0.394531 C 14.054688 0.394531 19.1875 -7.1875 24.085938 -14.84375 C 24.320312 -15.242188 24.402344 -15.476562 23.691406 -15.871094 C 23.296875 -16.109375 22.664062 -15.242188 22.347656 -14.84375 C 17.925781 -8.292969 13.503906 -1.34375 7.976562 -1.34375 C 3.078125 -1.34375 4.105469 -9.632812 6.949219 -16.1875 C 12.871094 -16.1875 19.1875 -20.058594 19.1875 -24.164062 C 19.1875 -27.324219 17.136719 -28.824219 14.609375 -28.824219 C 7.105469 -28.824219 0.710938 -15.714844 0.710938 -8.6875 C 0.710938 -0.789062 4.578125 0.394531 7.898438 0.394531 Z M 7.816406 -18.003906 C 10.027344 -23.214844 13.265625 -25.585938 15.320312 -25.585938 C 16.425781 -25.585938 16.898438 -24.480469 16.898438 -23.609375 C 16.898438 -20.6875 11.214844 -18.003906 7.816406 -18.003906 Z M 7.816406 -18.003906 "/></g></g></g></g><g fill="#f7b900" fill-opacity="1"><g transform="translate(8.152808, 67.912657)"><g><path d="M 8.84375 16.660156 C 16.03125 16.660156 23.691406 12.003906 29.769531 6.710938 C 35.773438 8.527344 41.773438 10.503906 48.089844 10.503906 C 52.671875 10.503906 56.855469 8.605469 58.988281 5.527344 C 59.855469 4.265625 59.855469 4.265625 59.855469 3.710938 C 59.855469 3.160156 59.226562 3 58.75 3.160156 C 58.277344 3.316406 57.566406 4.34375 57.171875 4.738281 C 54.722656 7.1875 51.40625 8.132812 48.25 8.132812 C 45.246094 8.132812 38.296875 6.792969 31.664062 4.894531 C 42.640625 -4.5 54.25 -25.664062 54.25 -39.957031 C 54.25 -49.195312 49.195312 -54.488281 39.957031 -54.488281 C 22.503906 -54.488281 5.765625 -37.507812 5.765625 -21.164062 C 5.765625 -15.398438 8.605469 -10.976562 14.609375 -10.976562 C 22.269531 -10.976562 28.507812 -19.503906 30.875 -25.585938 C 31.507812 -27.164062 30.085938 -28.03125 28.347656 -28.03125 C 27.402344 -28.03125 26.769531 -27.480469 26.453125 -26.53125 C 24.402344 -20.6875 19.503906 -14.292969 13.976562 -14.292969 C 9.792969 -14.292969 8.6875 -17.847656 8.6875 -21.164062 C 8.6875 -35.457031 24.085938 -51.800781 39.007812 -51.878906 C 46.589844 -51.878906 50.539062 -47.539062 50.539062 -39.957031 C 50.539062 -27.796875 38.613281 -8.132812 27.242188 3.710938 C 19.820312 2.210938 19.664062 1.894531 15.953125 1.894531 C 8.765625 1.894531 1.738281 6.394531 1.738281 12.003906 C 1.738281 15.636719 5.449219 16.660156 8.84375 16.660156 Z M 7.976562 15.003906 C 5.765625 15.003906 3.472656 13.976562 3.472656 11.925781 C 3.472656 7.34375 10.1875 3.789062 15.714844 3.789062 C 18.242188 3.789062 22.269531 4.578125 25.585938 5.449219 L 24.402344 6.554688 C 19.503906 11.214844 13.1875 15.003906 7.976562 15.003906 Z M 7.976562 15.003906 "/></g></g></g><g fill="#f7b900" fill-opacity="1"><g transform="translate(61.289691, 67.912657)"><g><path d="M 17.136719 0.394531 C 24.164062 0.394531 29.929688 -10.027344 33.246094 -14.84375 C 33.480469 -15.242188 33.402344 -15.554688 33.007812 -15.792969 C 32.375 -16.1875 31.746094 -15.160156 31.507812 -14.84375 C 28.113281 -10.027344 23.136719 -1.34375 17.292969 -1.34375 C 12.871094 -1.34375 21.398438 -17.453125 25.347656 -26.925781 C 25.742188 -27.953125 25.191406 -28.585938 23.691406 -28.824219 C 22.191406 -29.058594 21.480469 -28.347656 20.769531 -26.925781 C 18.636719 -22.820312 16.898438 -19.425781 14.84375 -14.84375 C 13.03125 -10.820312 4.816406 -1.738281 2.449219 -1.738281 C -0.078125 -1.738281 5.527344 -12.871094 12.554688 -26.691406 C 13.34375 -28.191406 11.84375 -28.664062 10.820312 -28.742188 C 9.476562 -28.824219 8.605469 -27.953125 7.898438 -26.769531 C 4.183594 -21.003906 -6.316406 0.078125 2.449219 0.078125 C 5.527344 0.078125 10.265625 -4.265625 12.714844 -7.816406 C 11.765625 -2.289062 13.582031 0.394531 17.136719 0.394531 Z M 17.136719 0.394531 "/></g></g></g><g fill="#f7b900" fill-opacity="1"><g transform="translate(91.213789, 67.912657)"><g><path d="M 20.292969 0.394531 C 26.21875 0.394531 31.347656 -6.554688 36.324219 -14.84375 C 36.5625 -15.242188 36.402344 -15.871094 35.773438 -15.871094 C 35.375 -15.871094 34.824219 -15.242188 34.585938 -14.84375 C 30.242188 -7.660156 25.742188 -1.34375 20.53125 -1.34375 C 19.582031 -1.34375 18.792969 -2.054688 18.792969 -3.238281 C 18.792969 -5.921875 21.003906 -10.976562 22.585938 -14.609375 C 23.925781 -17.6875 28.113281 -26.691406 28.113281 -27.480469 C 28.113281 -28.742188 27.324219 -29.296875 26.296875 -29.296875 C 24.796875 -29.296875 24.558594 -28.980469 22.425781 -25.269531 C 20.453125 -27.558594 18.714844 -28.980469 16.347656 -28.980469 C 8.921875 -28.980469 -0.078125 -15.242188 -0.078125 -6.949219 C -0.078125 -3.078125 1.421875 0.15625 4.421875 0.15625 C 8.054688 0.15625 13.109375 -5.605469 15.792969 -9.398438 C 15.476562 -7.898438 15.320312 -6.632812 15.320312 -5.449219 C 15.320312 -1.578125 17.058594 0.394531 20.292969 0.394531 Z M 4.894531 -1.738281 C 3.710938 -1.738281 3.394531 -2.605469 3.394531 -3.949219 C 3.394531 -10.582031 12.160156 -25.742188 18.003906 -25.742188 C 19.582031 -25.742188 20.847656 -24.402344 21.480469 -23.214844 C 20.53125 -21.164062 18.476562 -17.136719 17.53125 -15.082031 C 15.953125 -11.132812 8.371094 -1.738281 4.894531 -1.738281 Z M 4.894531 -1.738281 "/></g></g></g><g fill="#f7b900" fill-opacity="1"><g transform="translate(124.217135, 67.912657)"><g><path d="M 12.320312 -32.457031 C 13.660156 -31.746094 14.925781 -32.21875 15.554688 -33.007812 C 16.898438 -34.980469 15.320312 -37.429688 13.1875 -37.191406 C 10.738281 -36.957031 10.1875 -33.480469 12.320312 -32.457031 Z M 4.027344 0.394531 C 9.792969 0.394531 14.765625 -6.871094 19.976562 -14.84375 C 20.214844 -15.242188 20.058594 -15.714844 19.582031 -15.871094 C 19.109375 -16.03125 18.476562 -15.242188 18.242188 -14.84375 C 13.660156 -8.054688 9.238281 -1.34375 4.027344 -1.34375 C 1.027344 -1.34375 3.472656 -9.398438 5.605469 -14.53125 C 6.871094 -17.53125 11.6875 -25.902344 11.925781 -27.164062 C 12.082031 -28.429688 11.054688 -28.742188 10.027344 -28.742188 C 9.476562 -28.742188 8.292969 -28.507812 7.738281 -27.71875 C 6.554688 -26.21875 4.265625 -23.136719 0.867188 -14.53125 C -1.894531 -7.660156 -1.972656 0.394531 4.027344 0.394531 Z M 4.027344 0.394531 "/></g></g></g><g fill="#f7b900" fill-opacity="1"><g transform="translate(140.876785, 67.912657)"><g/></g></g><g fill="#f7b900" fill-opacity="1"><g transform="translate(158.247023, 67.912657)"><g><path d="M 42.957031 13.660156 C 44.773438 13.738281 45.40625 13.265625 45.484375 11.925781 C 45.722656 7.816406 46.984375 2.921875 48.878906 -2.367188 C 49.90625 -1.972656 50.855469 -1.816406 51.800781 -1.816406 C 58.671875 -1.738281 62.226562 -5.84375 67.988281 -14.84375 C 68.070312 -15.003906 68.226562 -15.554688 67.832031 -15.792969 C 67.359375 -16.03125 66.882812 -15.871094 66.253906 -14.84375 C 60.488281 -6.082031 57.644531 -3.472656 51.960938 -3.554688 C 51.171875 -3.554688 50.378906 -3.710938 49.511719 -4.027344 C 57.882812 -26.691406 75.648438 -54.882812 64.988281 -54.882812 C 54.644531 -54.882812 43.195312 -31.507812 31.429688 -15.476562 C 26.058594 -18.871094 20.292969 -21.714844 14.371094 -21.792969 C -1.972656 -22.03125 -5.449219 0.789062 12.398438 1.105469 C 19.582031 1.261719 26.375 -4.578125 32.769531 -12.476562 C 37.035156 -9.476562 41.0625 -6.316406 44.695312 -4.265625 C 42.640625 1.5 41.21875 6.949219 40.824219 11.6875 C 40.746094 12.714844 41.535156 13.582031 42.957031 13.660156 Z M 45.40625 -6 C 42.011719 -8.054688 38.0625 -11.054688 33.875 -13.898438 C 46.195312 -29.691406 56.617188 -52.355469 63.648438 -52.277344 C 69.253906 -52.195312 53.617188 -27.71875 45.40625 -6 Z M 12.476562 -0.632812 C -2.289062 -0.949219 0.867188 -20.214844 14.292969 -20.058594 C 19.898438 -19.976562 25.269531 -17.292969 30.402344 -14.054688 C 24.480469 -6.238281 18.476562 -0.472656 12.476562 -0.632812 Z M 12.476562 -0.632812 "/></g></g></g><g fill="#f7b900" fill-opacity="1"><g transform="translate(222.911362, 67.912657)"><g><path d="M -1.894531 0.394531 C -0.316406 0.394531 -0.15625 -0.15625 0.15625 -0.472656 C 0.710938 -1.738281 2.367188 -6 3.789062 -9.082031 C 7.660156 -17.292969 14.054688 -26.21875 17.453125 -26.21875 C 19.109375 -26.21875 18.558594 -24.953125 16.425781 -20.136719 C 14.214844 -15.160156 11.609375 -8.6875 11.609375 -4.265625 C 11.609375 -1.261719 13.660156 0.394531 16.265625 0.394531 C 23.53125 0.394531 30.085938 -11.765625 32.296875 -14.84375 C 32.375 -15.003906 32.535156 -15.476562 32.140625 -15.714844 C 31.664062 -16.03125 31.429688 -15.953125 30.558594 -14.84375 C 28.113281 -11.6875 22.664062 -1.34375 16.347656 -1.34375 C 12.238281 -1.34375 18.558594 -13.898438 21.085938 -20.136719 C 23.453125 -26.058594 21.714844 -28.902344 18.792969 -28.902344 C 14.449219 -28.902344 10.265625 -23.214844 8.605469 -20.53125 C 10.503906 -24.636719 11.132812 -26.058594 11.527344 -27.636719 C 11.765625 -28.585938 10.660156 -29.21875 9.949219 -29.21875 C 8.210938 -29.21875 7.660156 -28.347656 7.265625 -27.636719 C 6.316406 -25.980469 4.738281 -23.214844 2.605469 -17.453125 C 0.472656 -11.765625 -2.921875 -4.105469 -3.394531 -0.710938 C -3.472656 -0.078125 -2.765625 0.394531 -1.894531 0.394531 Z M -1.894531 0.394531 "/></g></g></g><g fill="#f7b900" fill-opacity="1"><g transform="translate(251.887999, 67.912657)"><g><path d="M 3.949219 0.394531 C 10.421875 0.394531 15.398438 -7.898438 20.058594 -14.84375 C 20.292969 -15.242188 20.214844 -15.554688 19.820312 -15.792969 C 19.269531 -16.109375 18.636719 -15.320312 18.320312 -14.84375 C 13.425781 -7.738281 9.476562 -1.34375 3.949219 -1.34375 C -0.710938 -1.34375 7.660156 -19.347656 14.214844 -31.902344 L 16.820312 -31.902344 C 17.609375 -31.902344 17.6875 -32.21875 17.847656 -32.691406 C 17.925781 -33.007812 17.847656 -33.5625 17.453125 -33.5625 L 15.082031 -33.5625 C 17.214844 -37.667969 19.109375 -40.984375 20.058594 -42.722656 C 20.375 -43.351562 19.582031 -43.984375 19.03125 -44.222656 C 18.164062 -44.617188 17.214844 -44.695312 16.425781 -43.589844 C 15.871094 -42.800781 13.582031 -38.773438 10.820312 -33.640625 L 7.898438 -33.640625 C 7.265625 -33.640625 6.949219 -33.640625 6.710938 -32.851562 C 6.632812 -32.535156 6.710938 -31.980469 7.105469 -31.980469 L 9.949219 -31.980469 C 5.6875 -23.847656 0.710938 -13.660156 -0.078125 -8.84375 C -1.105469 -2.765625 0.238281 0.394531 3.949219 0.394531 Z M 3.949219 0.394531 "/></g></g></g><g fill="#f7b900" fill-opacity="1"><g transform="translate(268.626584, 67.912657)"><g><path d="M 12.320312 -32.457031 C 13.660156 -31.746094 14.925781 -32.21875 15.554688 -33.007812 C 16.898438 -34.980469 15.320312 -37.429688 13.1875 -37.191406 C 10.738281 -36.957031 10.1875 -33.480469 12.320312 -32.457031 Z M 4.027344 0.394531 C 9.792969 0.394531 14.765625 -6.871094 19.976562 -14.84375 C 20.214844 -15.242188 20.058594 -15.714844 19.582031 -15.871094 C 19.109375 -16.03125 18.476562 -15.242188 18.242188 -14.84375 C 13.660156 -8.054688 9.238281 -1.34375 4.027344 -1.34375 C 1.027344 -1.34375 3.472656 -9.398438 5.605469 -14.53125 C 6.871094 -17.53125 11.6875 -25.902344 11.925781 -27.164062 C 12.082031 -28.429688 11.054688 -28.742188 10.027344 -28.742188 C 9.476562 -28.742188 8.292969 -28.507812 7.738281 -27.71875 C 6.554688 -26.21875 4.265625 -23.136719 0.867188 -14.53125 C -1.894531 -7.660156 -1.972656 0.394531 4.027344 0.394531 Z M 4.027344 0.394531 "/></g></g></g><g fill="#f7b900" fill-opacity="1"><g transform="translate(285.286222, 67.912657)"><g><path d="M 8.371094 26.613281 C 15.082031 26.613281 21.242188 16.109375 21.242188 9.238281 C 21.242188 7.34375 20.847656 5.84375 20.214844 4.578125 C 25.742188 -0.238281 30.402344 -7.976562 34.980469 -14.84375 C 35.21875 -15.242188 35.140625 -15.554688 34.746094 -15.792969 C 34.113281 -16.1875 33.402344 -15.082031 33.246094 -14.84375 C 29.769531 -9.871094 24.480469 -1.027344 19.347656 3.316406 C 18.320312 1.894531 16.660156 0.789062 14.609375 0.789062 C 16.425781 -3.316406 27.324219 -25.507812 27.875 -27.007812 C 28.269531 -28.03125 27.480469 -29.375 25.980469 -29.375 C 25.191406 -29.375 24.242188 -28.902344 23.53125 -27.636719 L 22.425781 -25.269531 C 20.453125 -27.558594 18.953125 -28.980469 16.347656 -28.980469 C 9.316406 -28.980469 -0.078125 -15.476562 -0.078125 -6.949219 C -0.078125 -3.078125 1.421875 0.15625 4.421875 0.15625 C 7.738281 0.15625 11.925781 -4.34375 14.6875 -7.898438 C 9.003906 3.160156 3.949219 14.136719 3.949219 20.214844 C 3.949219 24.003906 5.6875 26.613281 8.371094 26.613281 Z M 4.894531 -1.738281 C 0.789062 -1.738281 8.6875 -25.742188 18.003906 -25.742188 C 19.582031 -25.742188 20.847656 -24.402344 21.480469 -23.296875 C 21.792969 -23.609375 17.6875 -15.476562 17.53125 -15.082031 C 15.160156 -10.1875 8.371094 -1.738281 4.894531 -1.738281 Z M 14.925781 5.6875 C 13.820312 5.6875 13.109375 5.371094 12.714844 4.976562 C 13.109375 4.105469 13.425781 3.316406 13.660156 2.683594 C 15.160156 1.894531 17.136719 2.765625 18.320312 4.105469 C 17.058594 5.132812 15.953125 5.6875 14.925781 5.6875 Z M 8.84375 24.953125 C 4.183594 24.953125 7.976562 15.242188 12.003906 6.554688 C 12.554688 6.949219 13.503906 7.34375 14.53125 7.34375 C 15.953125 7.34375 17.292969 6.632812 19.109375 5.371094 C 19.582031 6.394531 19.820312 7.660156 19.820312 9.160156 C 19.820312 15.003906 13.820312 24.953125 8.84375 24.953125 Z M 8.84375 24.953125 "/></g></g></g><g fill="#f7b900" fill-opacity="1"><g transform="translate(316.947317, 67.912657)"><g><path d="M 17.136719 0.394531 C 24.164062 0.394531 29.929688 -10.027344 33.246094 -14.84375 C 33.480469 -15.242188 33.402344 -15.554688 33.007812 -15.792969 C 32.375 -16.1875 31.746094 -15.160156 31.507812 -14.84375 C 28.113281 -10.027344 23.136719 -1.34375 17.292969 -1.34375 C 12.871094 -1.34375 21.398438 -17.453125 25.347656 -26.925781 C 25.742188 -27.953125 25.191406 -28.585938 23.691406 -28.824219 C 22.191406 -29.058594 21.480469 -28.347656 20.769531 -26.925781 C 18.636719 -22.820312 16.898438 -19.425781 14.84375 -14.84375 C 13.03125 -10.820312 4.816406 -1.738281 2.449219 -1.738281 C -0.078125 -1.738281 5.527344 -12.871094 12.554688 -26.691406 C 13.34375 -28.191406 11.84375 -28.664062 10.820312 -28.742188 C 9.476562 -28.824219 8.605469 -27.953125 7.898438 -26.769531 C 4.183594 -21.003906 -6.316406 0.078125 2.449219 0.078125 C 5.527344 0.078125 10.265625 -4.265625 12.714844 -7.816406 C 11.765625 -2.289062 13.582031 0.394531 17.136719 0.394531 Z M 17.136719 0.394531 "/></g></g></g><g fill="#f7b900" fill-opacity="1"><g transform="translate(346.87142, 67.912657)"><g><path d="M 7.898438 0.394531 C 14.054688 0.394531 19.1875 -7.1875 24.085938 -14.84375 C 24.320312 -15.242188 24.402344 -15.476562 23.691406 -15.871094 C 23.296875 -16.109375 22.664062 -15.242188 22.347656 -14.84375 C 17.925781 -8.292969 13.503906 -1.34375 7.976562 -1.34375 C 3.078125 -1.34375 4.105469 -9.632812 6.949219 -16.1875 C 12.871094 -16.1875 19.1875 -20.058594 19.1875 -24.164062 C 19.1875 -27.324219 17.136719 -28.824219 14.609375 -28.824219 C 7.105469 -28.824219 0.710938 -15.714844 0.710938 -8.6875 C 0.710938 -0.789062 4.578125 0.394531 7.898438 0.394531 Z M 7.816406 -18.003906 C 10.027344 -23.214844 13.265625 -25.585938 15.320312 -25.585938 C 16.425781 -25.585938 16.898438 -24.480469 16.898438 -23.609375 C 16.898438 -20.6875 11.214844 -18.003906 7.816406 -18.003906 Z M 7.816406 -18.003906 "/></g></g></g><path stroke-linecap="butt" transform="matrix(0.934529, 0, 0, 0.934155, 7.489973, 111.618966)" fill="none" stroke-linejoin="miter" d="M -0.00180989 1.001678 L 77.970262 1.001678 " stroke="#000000" stroke-width="2" stroke-opacity="1" stroke-miterlimit="4"/><path stroke-linecap="butt" transform="matrix(0.928759, 0, 0, 0.934155, 294.222115, 111.618966)" fill="none" stroke-linejoin="miter" d="M 0.000583062 1.001678 L 78.452852 1.001678 " stroke="#000000" stroke-width="2" stroke-opacity="1" stroke-miterlimit="4"/><g fill="#000000" fill-opacity="1"><g transform="translate(88.47802, 117.223898)"><g><path d="M 5.921875 2.0625 C 4.773438 2.0625 3.8125 1.785156 3.03125 1.234375 C 2.257812 0.679688 1.6875 -0.0351562 1.3125 -0.921875 C 0.945312 -1.804688 0.765625 -2.765625 0.765625 -3.796875 C 0.765625 -5.828125 1.265625 -7.875 2.265625 -9.9375 C 3.265625 -12 4.546875 -13.695312 6.109375 -15.03125 C 7.679688 -16.375 9.253906 -17.046875 10.828125 -17.046875 C 11.578125 -17.046875 12.175781 -16.867188 12.625 -16.515625 C 13.070312 -16.171875 13.296875 -15.628906 13.296875 -14.890625 C 13.296875 -14.253906 13.148438 -13.523438 12.859375 -12.703125 C 12.566406 -11.878906 12.191406 -11.175781 11.734375 -10.59375 C 11.285156 -10.019531 10.832031 -9.734375 10.375 -9.734375 C 9.988281 -9.734375 9.664062 -9.984375 9.40625 -10.484375 C 10.007812 -11.140625 10.59375 -11.925781 11.15625 -12.84375 C 11.71875 -13.757812 12 -14.503906 12 -15.078125 C 12 -15.691406 11.640625 -16 10.921875 -16 C 9.816406 -16 8.644531 -15.328125 7.40625 -13.984375 C 6.164062 -12.640625 5.128906 -10.988281 4.296875 -9.03125 C 3.472656 -7.070312 3.0625 -5.253906 3.0625 -3.578125 C 3.0625 -2.316406 3.34375 -1.25 3.90625 -0.375 C 4.476562 0.488281 5.34375 0.921875 6.5 0.921875 C 7.320312 0.921875 8.15625 0.6875 9 0.21875 C 9.851562 -0.238281 10.632812 -0.851562 11.34375 -1.625 C 12.0625 -2.40625 12.632812 -3.242188 13.0625 -4.140625 L 13.671875 -3.75 C 12.773438 -2.039062 11.65625 -0.644531 10.3125 0.4375 C 8.976562 1.519531 7.515625 2.0625 5.921875 2.0625 Z M 5.921875 2.0625 "/></g></g></g><g fill="#000000" fill-opacity="1"><g transform="translate(102.218093, 117.223898)"><g><path d="M 1.09375 0.90625 C 0.757812 0.90625 0.515625 0.648438 0.359375 0.140625 C 0.203125 -0.359375 0.125 -1 0.125 -1.78125 C 0.125 -3.195312 0.566406 -5.125 1.453125 -7.5625 C 2.347656 -10.007812 3.367188 -12.179688 4.515625 -14.078125 C 5.671875 -15.972656 6.613281 -16.921875 7.34375 -16.921875 C 7.664062 -16.921875 7.914062 -16.742188 8.09375 -16.390625 C 8.28125 -16.046875 8.375 -15.660156 8.375 -15.234375 C 8.375 -14.515625 8.109375 -13.546875 7.578125 -12.328125 C 7.046875 -11.109375 6.347656 -9.929688 5.484375 -8.796875 C 4.628906 -7.671875 3.742188 -6.84375 2.828125 -6.3125 C 2.285156 -4.882812 2.015625 -3.539062 2.015625 -2.28125 L 2.03125 -1.78125 C 2.0625 -1.820312 2.132812 -1.992188 2.25 -2.296875 C 2.5625 -3.117188 2.890625 -3.859375 3.234375 -4.515625 C 3.585938 -5.179688 4.066406 -5.800781 4.671875 -6.375 C 5.285156 -6.957031 5.992188 -7.25 6.796875 -7.25 C 7.523438 -7.25 8.054688 -7.015625 8.390625 -6.546875 C 8.722656 -6.085938 8.890625 -5.539062 8.890625 -4.90625 C 8.890625 -4.539062 8.84375 -4.195312 8.75 -3.875 C 8.65625 -3.5625 8.507812 -3.160156 8.3125 -2.671875 C 8.28125 -2.609375 8.222656 -2.460938 8.140625 -2.234375 C 8.054688 -2.003906 7.992188 -1.796875 7.953125 -1.609375 C 7.910156 -1.429688 7.890625 -1.273438 7.890625 -1.140625 C 7.890625 -0.628906 8.101562 -0.375 8.53125 -0.375 C 8.875 -0.375 9.285156 -0.546875 9.765625 -0.890625 C 10.242188 -1.242188 10.707031 -1.710938 11.15625 -2.296875 C 11.613281 -2.878906 12.007812 -3.515625 12.34375 -4.203125 L 12.734375 -3.796875 C 12.140625 -2.492188 11.425781 -1.441406 10.59375 -0.640625 C 9.769531 0.160156 8.882812 0.5625 7.9375 0.5625 C 7.351562 0.5625 6.898438 0.40625 6.578125 0.09375 C 6.253906 -0.207031 6.09375 -0.601562 6.09375 -1.09375 C 6.09375 -1.40625 6.203125 -1.972656 6.421875 -2.796875 C 6.660156 -3.566406 6.78125 -4.144531 6.78125 -4.53125 C 6.78125 -5.1875 6.492188 -5.515625 5.921875 -5.515625 C 5.359375 -5.515625 4.878906 -5.21875 4.484375 -4.625 C 4.097656 -4.039062 3.660156 -3.171875 3.171875 -2.015625 C 2.773438 -1.035156 2.425781 -0.304688 2.125 0.171875 C 1.832031 0.660156 1.488281 0.90625 1.09375 0.90625 Z M 3.3125 -7.828125 C 3.96875 -8.410156 4.59375 -9.164062 5.1875 -10.09375 C 5.789062 -11.03125 6.28125 -11.9375 6.65625 -12.8125 C 7.039062 -13.6875 7.234375 -14.316406 7.234375 -14.703125 C 7.035156 -14.617188 6.691406 -14.234375 6.203125 -13.546875 C 5.710938 -12.859375 5.195312 -11.992188 4.65625 -10.953125 C 4.125 -9.921875 3.675781 -8.878906 3.3125 -7.828125 Z M 3.3125 -7.828125 "/></g></g></g><g fill="#000000" fill-opacity="1"><g transform="translate(114.157763, 117.223898)"><g><path d="M 2.75 1.046875 C 1.75 1.046875 0.972656 0.773438 0.421875 0.234375 C -0.128906 -0.296875 -0.40625 -0.984375 -0.40625 -1.828125 C -0.40625 -2.742188 -0.0976562 -3.734375 0.515625 -4.796875 C 1.140625 -5.867188 1.929688 -6.765625 2.890625 -7.484375 C 3.859375 -8.203125 4.804688 -8.5625 5.734375 -8.5625 C 6.222656 -8.5625 6.632812 -8.4375 6.96875 -8.1875 C 7.300781 -7.945312 7.46875 -7.539062 7.46875 -6.96875 C 7.46875 -6.207031 7.175781 -5.488281 6.59375 -4.8125 C 6.007812 -4.144531 5.253906 -3.597656 4.328125 -3.171875 C 3.398438 -2.742188 2.457031 -2.476562 1.5 -2.375 C 1.46875 -2.21875 1.453125 -2.035156 1.453125 -1.828125 C 1.453125 -1.410156 1.566406 -0.992188 1.796875 -0.578125 C 2.023438 -0.171875 2.515625 0.03125 3.265625 0.03125 C 4.234375 0.03125 5.21875 -0.359375 6.21875 -1.140625 C 7.226562 -1.929688 8.039062 -2.910156 8.65625 -4.078125 L 9.125 -3.703125 C 8.488281 -2.273438 7.582031 -1.125 6.40625 -0.25 C 5.226562 0.613281 4.007812 1.046875 2.75 1.046875 Z M 1.75 -3.25 C 2.320312 -3.3125 2.957031 -3.539062 3.65625 -3.9375 C 4.363281 -4.332031 4.960938 -4.816406 5.453125 -5.390625 C 5.941406 -5.960938 6.1875 -6.53125 6.1875 -7.09375 C 6.1875 -7.257812 6.15625 -7.375 6.09375 -7.4375 C 6.03125 -7.5 5.925781 -7.53125 5.78125 -7.53125 C 5.320312 -7.53125 4.816406 -7.3125 4.265625 -6.875 C 3.722656 -6.445312 3.222656 -5.898438 2.765625 -5.234375 C 2.304688 -4.578125 1.96875 -3.914062 1.75 -3.25 Z M 1.75 -3.25 "/></g></g></g><g fill="#000000" fill-opacity="1"><g transform="translate(122.47292, 117.223898)"><g><path d="M -0.03125 6.640625 C -0.40625 6.640625 -0.753906 6.472656 -1.078125 6.140625 C -1.398438 5.804688 -1.5625 5.210938 -1.5625 4.359375 C -1.5625 2.710938 -0.972656 0.125 0.203125 -3.40625 C 1.378906 -6.945312 2.769531 -10.109375 4.375 -12.890625 C 5.976562 -15.671875 7.441406 -17.0625 8.765625 -17.0625 C 9.429688 -17.0625 9.765625 -16.660156 9.765625 -15.859375 C 9.765625 -14.984375 9.453125 -13.992188 8.828125 -12.890625 C 8.203125 -11.785156 7.390625 -10.707031 6.390625 -9.65625 C 5.398438 -8.601562 4.367188 -7.722656 3.296875 -7.015625 L 2.921875 -6.0625 C 3.078125 -6 3.203125 -5.890625 3.296875 -5.734375 C 3.398438 -5.578125 3.472656 -5.410156 3.515625 -5.234375 C 3.671875 -4.378906 3.8125 -3.722656 3.9375 -3.265625 C 4.0625 -2.804688 4.253906 -2.4375 4.515625 -2.15625 C 4.773438 -1.875 5.132812 -1.734375 5.59375 -1.734375 C 6.113281 -1.734375 6.582031 -1.921875 7 -2.296875 C 7.414062 -2.679688 7.875 -3.273438 8.375 -4.078125 L 8.890625 -3.703125 C 8.410156 -2.734375 7.859375 -2.003906 7.234375 -1.515625 C 6.617188 -1.023438 6.03125 -0.78125 5.46875 -0.78125 C 4.9375 -0.78125 4.378906 -0.992188 3.796875 -1.421875 C 3.773438 -0.140625 3.578125 1.125 3.203125 2.375 C 2.835938 3.632812 2.363281 4.660156 1.78125 5.453125 C 1.195312 6.242188 0.59375 6.640625 -0.03125 6.640625 Z M 3.984375 -8.671875 C 4.878906 -9.523438 5.675781 -10.378906 6.375 -11.234375 C 7.070312 -12.085938 7.601562 -12.847656 7.96875 -13.515625 C 8.34375 -14.191406 8.53125 -14.671875 8.53125 -14.953125 C 8.53125 -15.078125 8.46875 -15.140625 8.34375 -15.140625 C 7.789062 -15.140625 7.125 -14.539062 6.34375 -13.34375 C 5.570312 -12.15625 4.785156 -10.597656 3.984375 -8.671875 Z M 0.640625 5.171875 C 0.921875 5.171875 1.226562 4.789062 1.5625 4.03125 C 1.90625 3.269531 2.203125 2.359375 2.453125 1.296875 C 2.703125 0.242188 2.828125 -0.660156 2.828125 -1.421875 C 2.828125 -1.859375 2.773438 -2.253906 2.671875 -2.609375 C 2.566406 -2.972656 2.390625 -3.382812 2.140625 -3.84375 C 1.566406 -2.132812 1.109375 -0.578125 0.765625 0.828125 C 0.429688 2.234375 0.265625 3.335938 0.265625 4.140625 C 0.265625 4.828125 0.390625 5.171875 0.640625 5.171875 Z M 0.640625 5.171875 "/></g></g></g><g fill="#000000" fill-opacity="1"><g transform="translate(130.527501, 117.223898)"><g/></g></g><g fill="#000000" fill-opacity="1"><g transform="translate(136.923806, 117.223898)"><g><path d="M 1.09375 2.0625 C 0.363281 1.6875 0 1.195312 0 0.59375 C 0 -0.0078125 0.3125 -0.9375 0.9375 -2.1875 C 1.570312 -3.445312 2.421875 -4.890625 3.484375 -6.515625 C 2.535156 -6.578125 1.375 -6.609375 0 -6.609375 C 0.375 -7.640625 1.289062 -8.15625 2.75 -8.15625 C 3.0625 -8.15625 3.644531 -8.109375 4.5 -8.015625 C 6.269531 -10.566406 7.921875 -12.71875 9.453125 -14.46875 C 10.984375 -16.226562 12.003906 -17.109375 12.515625 -17.109375 C 12.921875 -17.109375 13.457031 -16.800781 14.125 -16.1875 C 13.8125 -15.945312 13.347656 -14.960938 12.734375 -13.234375 C 12.128906 -11.503906 11.59375 -9.609375 11.125 -7.546875 C 10.65625 -5.484375 10.421875 -3.820312 10.421875 -2.5625 C 10.421875 -1.925781 10.488281 -1.453125 10.625 -1.140625 C 10.757812 -0.835938 10.972656 -0.6875 11.265625 -0.6875 C 11.648438 -0.6875 12.113281 -0.972656 12.65625 -1.546875 C 13.195312 -2.128906 13.78125 -3.019531 14.40625 -4.21875 L 14.84375 -3.765625 C 14.332031 -2.421875 13.679688 -1.34375 12.890625 -0.53125 C 12.097656 0.28125 11.273438 0.6875 10.421875 0.6875 C 9.703125 0.6875 9.175781 0.375 8.84375 -0.25 C 8.507812 -0.882812 8.34375 -1.796875 8.34375 -2.984375 C 8.34375 -3.753906 8.445312 -4.734375 8.65625 -5.921875 C 7.84375 -6.046875 6.710938 -6.195312 5.265625 -6.375 C 3.796875 -3.769531 2.40625 -0.957031 1.09375 2.0625 Z M 8.890625 -7.09375 C 9.171875 -8.414062 9.539062 -9.785156 10 -11.203125 C 10.457031 -12.628906 10.925781 -13.90625 11.40625 -15.03125 C 10.707031 -14.476562 9.890625 -13.5625 8.953125 -12.28125 C 8.023438 -11 7.046875 -9.484375 6.015625 -7.734375 L 7.796875 -7.34375 C 8.273438 -7.21875 8.640625 -7.132812 8.890625 -7.09375 Z M 8.890625 -7.09375 "/></g></g></g><g fill="#000000" fill-opacity="1"><g transform="translate(152.10894, 117.223898)"><g><path d="M 4.390625 0.609375 C 3.804688 0.609375 3.332031 0.453125 2.96875 0.140625 C 2.601562 -0.160156 2.421875 -0.570312 2.421875 -1.09375 C 2.421875 -1.394531 2.476562 -1.722656 2.59375 -2.078125 C 2.707031 -2.429688 2.882812 -2.859375 3.125 -3.359375 C 3.332031 -3.804688 3.488281 -4.179688 3.59375 -4.484375 C 3.707031 -4.796875 3.765625 -5.070312 3.765625 -5.3125 C 3.765625 -5.90625 3.367188 -6.410156 2.578125 -6.828125 C 2.265625 -6.035156 1.898438 -5.234375 1.484375 -4.421875 C 1.066406 -3.617188 0.691406 -2.941406 0.359375 -2.390625 L 0 -3.078125 C 0.726562 -4.378906 1.367188 -5.8125 1.921875 -7.375 C 1.765625 -7.53125 1.6875 -7.742188 1.6875 -8.015625 C 1.6875 -8.421875 1.8125 -8.804688 2.0625 -9.171875 C 2.3125 -9.535156 2.554688 -9.71875 2.796875 -9.71875 C 2.953125 -9.71875 3.082031 -9.625 3.1875 -9.4375 C 3.289062 -9.25 3.34375 -9.085938 3.34375 -8.953125 C 3.34375 -8.890625 3.304688 -8.75 3.234375 -8.53125 C 3.160156 -8.320312 3.109375 -8.171875 3.078125 -8.078125 C 3.097656 -7.972656 3.160156 -7.867188 3.265625 -7.765625 C 3.378906 -7.660156 3.585938 -7.515625 3.890625 -7.328125 C 4.441406 -6.960938 4.867188 -6.609375 5.171875 -6.265625 C 5.484375 -5.929688 5.640625 -5.476562 5.640625 -4.90625 C 5.640625 -4.5625 5.578125 -4.210938 5.453125 -3.859375 C 5.335938 -3.515625 5.164062 -3.097656 4.9375 -2.609375 C 4.582031 -1.910156 4.40625 -1.410156 4.40625 -1.109375 C 4.40625 -0.742188 4.601562 -0.5625 5 -0.5625 C 5.476562 -0.5625 5.992188 -0.75 6.546875 -1.125 C 7.109375 -1.507812 7.625 -1.972656 8.09375 -2.515625 C 8.5625 -3.066406 8.90625 -3.578125 9.125 -4.046875 L 9.6875 -3.625 C 9.375 -2.914062 8.929688 -2.234375 8.359375 -1.578125 C 7.796875 -0.929688 7.160156 -0.40625 6.453125 0 C 5.753906 0.40625 5.066406 0.609375 4.390625 0.609375 Z M 4.390625 0.609375 "/></g></g></g><g fill="#000000" fill-opacity="1"><g transform="translate(160.945267, 117.223898)"><g><path d="M 7.984375 0.46875 C 7.390625 0.46875 6.925781 0.316406 6.59375 0.015625 C 6.257812 -0.273438 6.09375 -0.664062 6.09375 -1.15625 C 6.09375 -1.363281 6.128906 -1.601562 6.203125 -1.875 C 6.273438 -2.144531 6.347656 -2.410156 6.421875 -2.671875 C 6.640625 -3.398438 6.75 -3.941406 6.75 -4.296875 C 6.75 -4.609375 6.671875 -4.835938 6.515625 -4.984375 C 6.359375 -5.140625 6.160156 -5.21875 5.921875 -5.21875 C 5.085938 -5.21875 4.242188 -4.691406 3.390625 -3.640625 C 2.535156 -2.585938 1.617188 -1.253906 0.640625 0.359375 C -0.0351562 0.359375 -0.550781 0.128906 -0.90625 -0.328125 L -0.6875 -0.921875 C 0.25 -3.179688 0.71875 -4.859375 0.71875 -5.953125 C 0.84375 -6.085938 1.019531 -6.210938 1.25 -6.328125 C 1.488281 -6.453125 1.71875 -6.515625 1.9375 -6.515625 C 2.207031 -6.515625 2.410156 -6.453125 2.546875 -6.328125 C 2.691406 -6.203125 2.765625 -6.03125 2.765625 -5.8125 C 2.765625 -5.382812 2.632812 -4.679688 2.375 -3.703125 C 3.082031 -4.648438 3.816406 -5.421875 4.578125 -6.015625 C 5.347656 -6.617188 6.101562 -6.921875 6.84375 -6.921875 C 7.476562 -6.921875 7.96875 -6.703125 8.3125 -6.265625 C 8.664062 -5.835938 8.84375 -5.320312 8.84375 -4.71875 C 8.84375 -4.375 8.796875 -4.039062 8.703125 -3.71875 C 8.617188 -3.40625 8.488281 -3.050781 8.3125 -2.65625 C 8.050781 -1.988281 7.921875 -1.488281 7.921875 -1.15625 C 7.921875 -0.925781 7.972656 -0.753906 8.078125 -0.640625 C 8.191406 -0.523438 8.328125 -0.46875 8.484375 -0.46875 C 9.003906 -0.46875 9.566406 -0.828125 10.171875 -1.546875 C 10.785156 -2.265625 11.335938 -3.113281 11.828125 -4.09375 L 12.234375 -3.765625 C 11.660156 -2.453125 11.03125 -1.414062 10.34375 -0.65625 C 9.65625 0.09375 8.867188 0.46875 7.984375 0.46875 Z M 7.984375 0.46875 "/></g></g></g><g fill="#000000" fill-opacity="1"><g transform="translate(172.387453, 117.223898)"><g><path d="M 1.328125 1.109375 C 0.773438 1.109375 0.316406 0.925781 -0.046875 0.5625 C -0.421875 0.207031 -0.609375 -0.300781 -0.609375 -0.96875 C -0.609375 -1.882812 -0.273438 -2.910156 0.390625 -4.046875 C 1.066406 -5.191406 1.925781 -6.15625 2.96875 -6.9375 C 4.007812 -7.726562 5.050781 -8.125 6.09375 -8.125 C 6.789062 -8.125 7.367188 -7.945312 7.828125 -7.59375 C 8.296875 -7.238281 8.53125 -6.785156 8.53125 -6.234375 C 8.53125 -5.503906 8.082031 -5.125 7.1875 -5.09375 C 7.75 -4.914062 8.03125 -4.679688 8.03125 -4.390625 C 8.03125 -4.273438 7.972656 -4.109375 7.859375 -3.890625 C 7.753906 -3.671875 7.628906 -3.441406 7.484375 -3.203125 C 7.234375 -2.785156 7.035156 -2.421875 6.890625 -2.109375 C 6.753906 -1.804688 6.6875 -1.519531 6.6875 -1.25 C 6.6875 -1.019531 6.742188 -0.820312 6.859375 -0.65625 C 6.984375 -0.488281 7.160156 -0.40625 7.390625 -0.40625 C 7.835938 -0.40625 8.40625 -0.710938 9.09375 -1.328125 C 9.78125 -1.941406 10.445312 -2.863281 11.09375 -4.09375 L 11.546875 -3.65625 C 10.960938 -2.34375 10.234375 -1.285156 9.359375 -0.484375 C 8.492188 0.316406 7.617188 0.71875 6.734375 0.71875 C 6.097656 0.71875 5.609375 0.503906 5.265625 0.078125 C 4.929688 -0.335938 4.765625 -0.8125 4.765625 -1.34375 C 4.054688 -0.5 3.445312 0.117188 2.9375 0.515625 C 2.4375 0.910156 1.898438 1.109375 1.328125 1.109375 Z M 1.828125 -0.09375 C 2.378906 -0.09375 3.019531 -0.488281 3.75 -1.28125 C 4.488281 -2.082031 5.320312 -3.125 6.25 -4.40625 L 6.734375 -5.046875 C 6.773438 -5.128906 6.835938 -5.171875 6.921875 -5.171875 L 7.015625 -5.140625 C 7.097656 -5.390625 7.140625 -5.679688 7.140625 -6.015625 C 7.140625 -6.835938 6.804688 -7.25 6.140625 -7.25 C 5.441406 -7.25 4.710938 -6.878906 3.953125 -6.140625 C 3.203125 -5.398438 2.566406 -4.515625 2.046875 -3.484375 C 1.535156 -2.453125 1.28125 -1.578125 1.28125 -0.859375 C 1.28125 -0.585938 1.320312 -0.390625 1.40625 -0.265625 C 1.5 -0.148438 1.640625 -0.09375 1.828125 -0.09375 Z M 1.828125 -0.09375 "/></g></g></g><g fill="#000000" fill-opacity="1"><g transform="translate(183.142635, 117.223898)"><g><path d="M 1.796875 0.71875 C 1.273438 0.71875 0.835938 0.472656 0.484375 -0.015625 C 0.140625 -0.515625 -0.03125 -1.09375 -0.03125 -1.75 C -0.03125 -2.320312 0.09375 -3.035156 0.34375 -3.890625 C 0.601562 -4.742188 0.898438 -5.484375 1.234375 -6.109375 C 1.578125 -6.742188 1.878906 -7.0625 2.140625 -7.0625 C 2.242188 -7.0625 2.410156 -7 2.640625 -6.875 C 2.867188 -6.757812 3.070312 -6.617188 3.25 -6.453125 C 2.914062 -5.960938 2.570312 -5.257812 2.21875 -4.34375 C 1.863281 -3.425781 1.6875 -2.632812 1.6875 -1.96875 C 1.6875 -1.664062 1.726562 -1.351562 1.8125 -1.03125 C 1.894531 -0.707031 2.085938 -0.546875 2.390625 -0.546875 C 2.972656 -0.546875 3.671875 -1.195312 4.484375 -2.5 C 5.304688 -3.800781 6.007812 -5.125 6.59375 -6.46875 C 7.539062 -6.3125 8.015625 -6.046875 8.015625 -5.671875 C 8.015625 -5.640625 7.921875 -5.410156 7.734375 -4.984375 C 7.398438 -4.203125 7.113281 -3.476562 6.875 -2.8125 C 6.632812 -2.15625 6.515625 -1.582031 6.515625 -1.09375 C 6.515625 -0.539062 6.726562 -0.265625 7.15625 -0.265625 C 7.488281 -0.265625 7.882812 -0.414062 8.34375 -0.71875 C 8.8125 -1.03125 9.289062 -1.472656 9.78125 -2.046875 C 10.28125 -2.628906 10.707031 -3.296875 11.0625 -4.046875 L 11.421875 -3.765625 C 11.078125 -2.910156 10.628906 -2.144531 10.078125 -1.46875 C 9.523438 -0.789062 8.925781 -0.257812 8.28125 0.125 C 7.644531 0.519531 7.035156 0.71875 6.453125 0.71875 C 5.753906 0.71875 5.304688 0.476562 5.109375 0 C 4.910156 -0.488281 4.8125 -1.132812 4.8125 -1.9375 C 4.269531 -1.125 3.757812 -0.476562 3.28125 0 C 2.8125 0.476562 2.316406 0.71875 1.796875 0.71875 Z M 1.796875 0.71875 "/></g></g></g><g fill="#000000" fill-opacity="1"><g transform="translate(193.826746, 117.223898)"><g><path d="M 1.640625 0.71875 C 1.117188 0.71875 0.648438 0.535156 0.234375 0.171875 C -0.171875 -0.191406 -0.375 -0.722656 -0.375 -1.421875 C -0.375 -2.304688 -0.0351562 -3.328125 0.640625 -4.484375 C 1.316406 -5.648438 2.175781 -6.644531 3.21875 -7.46875 C 4.257812 -8.289062 5.304688 -8.703125 6.359375 -8.703125 C 7.128906 -8.703125 7.515625 -8.445312 7.515625 -7.9375 C 7.515625 -7.6875 7.421875 -7.503906 7.234375 -7.390625 C 7.109375 -7.566406 6.832031 -7.65625 6.40625 -7.65625 C 5.59375 -7.65625 4.820312 -7.300781 4.09375 -6.59375 C 3.375 -5.894531 2.785156 -5.070312 2.328125 -4.125 C 1.878906 -3.175781 1.65625 -2.382812 1.65625 -1.75 C 1.65625 -1.4375 1.71875 -1.191406 1.84375 -1.015625 C 1.96875 -0.847656 2.160156 -0.765625 2.421875 -0.765625 C 2.859375 -0.765625 3.375 -1.019531 3.96875 -1.53125 C 4.5625 -2.039062 5.171875 -2.769531 5.796875 -3.71875 C 6.421875 -4.664062 6.976562 -5.773438 7.46875 -7.046875 C 8.695312 -10.203125 9.738281 -12.660156 10.59375 -14.421875 C 11.445312 -16.179688 12.191406 -17.0625 12.828125 -17.0625 C 12.992188 -17.0625 13.144531 -16.992188 13.28125 -16.859375 C 13.414062 -16.722656 13.484375 -16.554688 13.484375 -16.359375 C 13.484375 -16.085938 13.359375 -15.675781 13.109375 -15.125 C 12.867188 -14.570312 12.457031 -13.703125 11.875 -12.515625 C 10.71875 -10.171875 9.800781 -8.125 9.125 -6.375 C 8.445312 -4.632812 8.109375 -3.054688 8.109375 -1.640625 C 8.109375 -1.253906 8.140625 -0.992188 8.203125 -0.859375 C 8.273438 -0.722656 8.398438 -0.65625 8.578125 -0.65625 C 9.117188 -0.65625 9.734375 -0.972656 10.421875 -1.609375 C 11.117188 -2.242188 11.726562 -3.097656 12.25 -4.171875 L 12.703125 -3.796875 C 12.179688 -2.492188 11.460938 -1.429688 10.546875 -0.609375 C 9.628906 0.203125 8.722656 0.609375 7.828125 0.609375 C 7.203125 0.609375 6.753906 0.421875 6.484375 0.046875 C 6.222656 -0.328125 6.09375 -0.828125 6.09375 -1.453125 C 6.09375 -1.804688 6.15625 -2.316406 6.28125 -2.984375 C 5.507812 -1.859375 4.710938 -0.957031 3.890625 -0.28125 C 3.066406 0.382812 2.316406 0.71875 1.640625 0.71875 Z M 1.640625 0.71875 "/></g></g></g><g fill="#000000" fill-opacity="1"><g transform="translate(205.695343, 117.223898)"><g/></g></g><g fill="#000000" fill-opacity="1"><g transform="translate(212.091644, 117.223898)"><g><path d="M -0.125 2.0625 C 0.0703125 1.488281 0.988281 -0.523438 2.625 -3.984375 C 5.039062 -9.222656 6.660156 -12.742188 7.484375 -14.546875 C 7.628906 -14.867188 7.703125 -15.128906 7.703125 -15.328125 C 7.703125 -15.679688 7.472656 -15.859375 7.015625 -15.859375 C 6.398438 -15.859375 5.878906 -15.664062 5.453125 -15.28125 C 5.023438 -14.894531 4.703125 -14.40625 4.484375 -13.8125 C 4.273438 -13.226562 4.171875 -12.640625 4.171875 -12.046875 C 4.171875 -11.710938 4.203125 -11.332031 4.265625 -10.90625 C 3.742188 -10.90625 3.332031 -11.128906 3.03125 -11.578125 C 2.726562 -12.023438 2.578125 -12.519531 2.578125 -13.0625 C 2.578125 -13.707031 2.820312 -14.34375 3.3125 -14.96875 C 3.800781 -15.59375 4.429688 -16.097656 5.203125 -16.484375 C 5.972656 -16.867188 6.726562 -17.0625 7.46875 -17.0625 C 8.082031 -17.0625 8.585938 -16.890625 8.984375 -16.546875 C 9.390625 -16.210938 9.695312 -15.617188 9.90625 -14.765625 C 10.125 -13.910156 10.234375 -12.71875 10.234375 -11.1875 C 10.234375 -10.082031 10.148438 -8.367188 9.984375 -6.046875 C 9.859375 -4.335938 9.796875 -3.242188 9.796875 -2.765625 C 10.265625 -4.191406 10.929688 -5.78125 11.796875 -7.53125 C 12.671875 -9.289062 13.535156 -10.914062 14.390625 -12.40625 C 15.253906 -13.90625 15.929688 -15.015625 16.421875 -15.734375 C 16.679688 -16.128906 16.894531 -16.398438 17.0625 -16.546875 C 17.238281 -16.703125 17.460938 -16.78125 17.734375 -16.78125 C 17.953125 -16.78125 18.296875 -16.691406 18.765625 -16.515625 C 18.453125 -15.835938 18.039062 -14.457031 17.53125 -12.375 C 17.03125 -10.289062 16.59375 -8.097656 16.21875 -5.796875 C 15.851562 -3.492188 15.671875 -1.640625 15.671875 -0.234375 C 15.671875 0.253906 15.691406 0.613281 15.734375 0.84375 C 15.785156 1.082031 15.851562 1.316406 15.9375 1.546875 C 16.03125 1.773438 16.097656 1.945312 16.140625 2.0625 C 15.460938 2.0625 14.945312 1.960938 14.59375 1.765625 C 14.25 1.566406 14.015625 1.25 13.890625 0.8125 C 13.765625 0.382812 13.703125 -0.222656 13.703125 -1.015625 C 13.703125 -2.597656 13.867188 -4.273438 14.203125 -6.046875 C 14.546875 -7.816406 15.050781 -9.976562 15.71875 -12.53125 C 14.71875 -11.113281 13.625 -9.097656 12.4375 -6.484375 C 11.257812 -3.878906 10.382812 -1.742188 9.8125 -0.078125 L 9.640625 -0.03125 C 9.535156 0.0195312 9.425781 0.046875 9.3125 0.046875 C 8.789062 0.046875 8.445312 -0.25 8.28125 -0.84375 C 8.113281 -1.445312 8.03125 -2.40625 8.03125 -3.71875 C 8.03125 -4.53125 8.0625 -5.882812 8.125 -7.78125 C 8.1875 -9.769531 8.21875 -11.222656 8.21875 -12.140625 L 8.203125 -13.53125 L 5.765625 -7.796875 C 4.585938 -5.015625 3.710938 -2.992188 3.140625 -1.734375 C 2.566406 -0.484375 2.019531 0.457031 1.5 1.09375 C 0.988281 1.738281 0.445312 2.0625 -0.125 2.0625 Z M -0.125 2.0625 "/></g></g></g><g fill="#000000" fill-opacity="1"><g transform="translate(231.422461, 117.223898)"><g><path d="M 4.6875 -9.984375 C 4.363281 -9.984375 4.085938 -10.0625 3.859375 -10.21875 C 3.628906 -10.375 3.515625 -10.601562 3.515625 -10.90625 C 3.515625 -11.269531 3.710938 -11.585938 4.109375 -11.859375 C 4.515625 -12.140625 4.945312 -12.28125 5.40625 -12.28125 C 6.082031 -12.28125 6.421875 -11.988281 6.421875 -11.40625 C 6.421875 -11.070312 6.238281 -10.75 5.875 -10.4375 C 5.507812 -10.132812 5.113281 -9.984375 4.6875 -9.984375 Z M 1.890625 0.71875 C 1.234375 0.71875 0.722656 0.519531 0.359375 0.125 C -0.00390625 -0.269531 -0.1875 -0.78125 -0.1875 -1.40625 C -0.1875 -2.03125 -0.0078125 -2.882812 0.34375 -3.96875 C 0.695312 -5.050781 1.144531 -6.003906 1.6875 -6.828125 C 2.238281 -7.648438 2.789062 -8.0625 3.34375 -8.0625 C 3.550781 -8.0625 3.71875 -8 3.84375 -7.875 C 3.976562 -7.757812 4.046875 -7.59375 4.046875 -7.375 C 4.046875 -7.226562 3.984375 -7.03125 3.859375 -6.78125 C 3.734375 -6.539062 3.53125 -6.191406 3.25 -5.734375 C 2.738281 -4.898438 2.335938 -4.160156 2.046875 -3.515625 C 1.753906 -2.878906 1.609375 -2.273438 1.609375 -1.703125 C 1.609375 -1.210938 1.695312 -0.878906 1.875 -0.703125 C 2.050781 -0.535156 2.316406 -0.453125 2.671875 -0.453125 C 3.921875 -0.453125 5.164062 -1.660156 6.40625 -4.078125 L 6.75 -3.703125 C 6.195312 -2.304688 5.492188 -1.21875 4.640625 -0.4375 C 3.785156 0.332031 2.867188 0.71875 1.890625 0.71875 Z M 1.890625 0.71875 "/></g></g></g><g fill="#000000" fill-opacity="1"><g transform="translate(237.439732, 117.223898)"><g><path d="M 2.671875 1.328125 C 1.828125 1.328125 1.144531 1.0625 0.625 0.53125 C 0.113281 0 -0.140625 -0.773438 -0.140625 -1.796875 C -0.140625 -2.804688 0.113281 -3.789062 0.625 -4.75 C 1.144531 -5.71875 1.8125 -6.503906 2.625 -7.109375 C 3.445312 -7.710938 4.28125 -8.015625 5.125 -8.015625 C 5.75 -8.015625 6.21875 -7.851562 6.53125 -7.53125 C 6.84375 -7.21875 7 -6.828125 7 -6.359375 C 7 -5.878906 6.882812 -5.4375 6.65625 -5.03125 C 6.425781 -4.632812 6.144531 -4.4375 5.8125 -4.4375 C 5.507812 -4.4375 5.265625 -4.585938 5.078125 -4.890625 C 5.265625 -5.015625 5.4375 -5.234375 5.59375 -5.546875 C 5.75 -5.859375 5.828125 -6.226562 5.828125 -6.65625 C 5.828125 -6.925781 5.675781 -7.0625 5.375 -7.0625 C 4.875 -7.0625 4.332031 -6.757812 3.75 -6.15625 C 3.164062 -5.5625 2.675781 -4.835938 2.28125 -3.984375 C 1.882812 -3.128906 1.6875 -2.351562 1.6875 -1.65625 C 1.6875 -1.15625 1.8125 -0.734375 2.0625 -0.390625 C 2.3125 -0.046875 2.742188 0.125 3.359375 0.125 C 3.960938 0.125 4.59375 -0.046875 5.25 -0.390625 C 5.90625 -0.742188 6.515625 -1.238281 7.078125 -1.875 C 7.648438 -2.519531 8.101562 -3.257812 8.4375 -4.09375 L 8.90625 -3.671875 C 8.53125 -2.722656 8.003906 -1.867188 7.328125 -1.109375 C 6.660156 -0.347656 5.914062 0.242188 5.09375 0.671875 C 4.269531 1.109375 3.460938 1.328125 2.671875 1.328125 Z M 2.671875 1.328125 "/></g></g></g><g fill="#000000" fill-opacity="1"><g transform="translate(245.565366, 117.223898)"><g><path d="M 1.09375 0.90625 C 0.757812 0.90625 0.515625 0.648438 0.359375 0.140625 C 0.203125 -0.359375 0.125 -1 0.125 -1.78125 C 0.125 -3.195312 0.566406 -5.125 1.453125 -7.5625 C 2.347656 -10.007812 3.367188 -12.179688 4.515625 -14.078125 C 5.671875 -15.972656 6.613281 -16.921875 7.34375 -16.921875 C 7.664062 -16.921875 7.914062 -16.742188 8.09375 -16.390625 C 8.28125 -16.046875 8.375 -15.660156 8.375 -15.234375 C 8.375 -14.515625 8.109375 -13.546875 7.578125 -12.328125 C 7.046875 -11.109375 6.347656 -9.929688 5.484375 -8.796875 C 4.628906 -7.671875 3.742188 -6.84375 2.828125 -6.3125 C 2.285156 -4.882812 2.015625 -3.539062 2.015625 -2.28125 L 2.03125 -1.78125 C 2.0625 -1.820312 2.132812 -1.992188 2.25 -2.296875 C 2.5625 -3.117188 2.890625 -3.859375 3.234375 -4.515625 C 3.585938 -5.179688 4.066406 -5.800781 4.671875 -6.375 C 5.285156 -6.957031 5.992188 -7.25 6.796875 -7.25 C 7.523438 -7.25 8.054688 -7.015625 8.390625 -6.546875 C 8.722656 -6.085938 8.890625 -5.539062 8.890625 -4.90625 C 8.890625 -4.539062 8.84375 -4.195312 8.75 -3.875 C 8.65625 -3.5625 8.507812 -3.160156 8.3125 -2.671875 C 8.28125 -2.609375 8.222656 -2.460938 8.140625 -2.234375 C 8.054688 -2.003906 7.992188 -1.796875 7.953125 -1.609375 C 7.910156 -1.429688 7.890625 -1.273438 7.890625 -1.140625 C 7.890625 -0.628906 8.101562 -0.375 8.53125 -0.375 C 8.875 -0.375 9.285156 -0.546875 9.765625 -0.890625 C 10.242188 -1.242188 10.707031 -1.710938 11.15625 -2.296875 C 11.613281 -2.878906 12.007812 -3.515625 12.34375 -4.203125 L 12.734375 -3.796875 C 12.140625 -2.492188 11.425781 -1.441406 10.59375 -0.640625 C 9.769531 0.160156 8.882812 0.5625 7.9375 0.5625 C 7.351562 0.5625 6.898438 0.40625 6.578125 0.09375 C 6.253906 -0.207031 6.09375 -0.601562 6.09375 -1.09375 C 6.09375 -1.40625 6.203125 -1.972656 6.421875 -2.796875 C 6.660156 -3.566406 6.78125 -4.144531 6.78125 -4.53125 C 6.78125 -5.1875 6.492188 -5.515625 5.921875 -5.515625 C 5.359375 -5.515625 4.878906 -5.21875 4.484375 -4.625 C 4.097656 -4.039062 3.660156 -3.171875 3.171875 -2.015625 C 2.773438 -1.035156 2.425781 -0.304688 2.125 0.171875 C 1.832031 0.660156 1.488281 0.90625 1.09375 0.90625 Z M 3.3125 -7.828125 C 3.96875 -8.410156 4.59375 -9.164062 5.1875 -10.09375 C 5.789062 -11.03125 6.28125 -11.9375 6.65625 -12.8125 C 7.039062 -13.6875 7.234375 -14.316406 7.234375 -14.703125 C 7.035156 -14.617188 6.691406 -14.234375 6.203125 -13.546875 C 5.710938 -12.859375 5.195312 -11.992188 4.65625 -10.953125 C 4.125 -9.921875 3.675781 -8.878906 3.3125 -7.828125 Z M 3.3125 -7.828125 "/></g></g></g><g fill="#000000" fill-opacity="1"><g transform="translate(257.505033, 117.223898)"><g><path d="M 1.328125 1.109375 C 0.773438 1.109375 0.316406 0.925781 -0.046875 0.5625 C -0.421875 0.207031 -0.609375 -0.300781 -0.609375 -0.96875 C -0.609375 -1.882812 -0.273438 -2.910156 0.390625 -4.046875 C 1.066406 -5.191406 1.925781 -6.15625 2.96875 -6.9375 C 4.007812 -7.726562 5.050781 -8.125 6.09375 -8.125 C 6.789062 -8.125 7.367188 -7.945312 7.828125 -7.59375 C 8.296875 -7.238281 8.53125 -6.785156 8.53125 -6.234375 C 8.53125 -5.503906 8.082031 -5.125 7.1875 -5.09375 C 7.75 -4.914062 8.03125 -4.679688 8.03125 -4.390625 C 8.03125 -4.273438 7.972656 -4.109375 7.859375 -3.890625 C 7.753906 -3.671875 7.628906 -3.441406 7.484375 -3.203125 C 7.234375 -2.785156 7.035156 -2.421875 6.890625 -2.109375 C 6.753906 -1.804688 6.6875 -1.519531 6.6875 -1.25 C 6.6875 -1.019531 6.742188 -0.820312 6.859375 -0.65625 C 6.984375 -0.488281 7.160156 -0.40625 7.390625 -0.40625 C 7.835938 -0.40625 8.40625 -0.710938 9.09375 -1.328125 C 9.78125 -1.941406 10.445312 -2.863281 11.09375 -4.09375 L 11.546875 -3.65625 C 10.960938 -2.34375 10.234375 -1.285156 9.359375 -0.484375 C 8.492188 0.316406 7.617188 0.71875 6.734375 0.71875 C 6.097656 0.71875 5.609375 0.503906 5.265625 0.078125 C 4.929688 -0.335938 4.765625 -0.8125 4.765625 -1.34375 C 4.054688 -0.5 3.445312 0.117188 2.9375 0.515625 C 2.4375 0.910156 1.898438 1.109375 1.328125 1.109375 Z M 1.828125 -0.09375 C 2.378906 -0.09375 3.019531 -0.488281 3.75 -1.28125 C 4.488281 -2.082031 5.320312 -3.125 6.25 -4.40625 L 6.734375 -5.046875 C 6.773438 -5.128906 6.835938 -5.171875 6.921875 -5.171875 L 7.015625 -5.140625 C 7.097656 -5.390625 7.140625 -5.679688 7.140625 -6.015625 C 7.140625 -6.835938 6.804688 -7.25 6.140625 -7.25 C 5.441406 -7.25 4.710938 -6.878906 3.953125 -6.140625 C 3.203125 -5.398438 2.566406 -4.515625 2.046875 -3.484375 C 1.535156 -2.453125 1.28125 -1.578125 1.28125 -0.859375 C 1.28125 -0.585938 1.320312 -0.390625 1.40625 -0.265625 C 1.5 -0.148438 1.640625 -0.09375 1.828125 -0.09375 Z M 1.828125 -0.09375 "/></g></g></g><g fill="#000000" fill-opacity="1"><g transform="translate(268.260215, 117.223898)"><g><path d="M 7.984375 0.46875 C 7.390625 0.46875 6.925781 0.316406 6.59375 0.015625 C 6.257812 -0.273438 6.09375 -0.664062 6.09375 -1.15625 C 6.09375 -1.363281 6.128906 -1.601562 6.203125 -1.875 C 6.273438 -2.144531 6.347656 -2.410156 6.421875 -2.671875 C 6.640625 -3.398438 6.75 -3.941406 6.75 -4.296875 C 6.75 -4.609375 6.671875 -4.835938 6.515625 -4.984375 C 6.359375 -5.140625 6.160156 -5.21875 5.921875 -5.21875 C 5.085938 -5.21875 4.242188 -4.691406 3.390625 -3.640625 C 2.535156 -2.585938 1.617188 -1.253906 0.640625 0.359375 C -0.0351562 0.359375 -0.550781 0.128906 -0.90625 -0.328125 L -0.6875 -0.921875 C 0.25 -3.179688 0.71875 -4.859375 0.71875 -5.953125 C 0.84375 -6.085938 1.019531 -6.210938 1.25 -6.328125 C 1.488281 -6.453125 1.71875 -6.515625 1.9375 -6.515625 C 2.207031 -6.515625 2.410156 -6.453125 2.546875 -6.328125 C 2.691406 -6.203125 2.765625 -6.03125 2.765625 -5.8125 C 2.765625 -5.382812 2.632812 -4.679688 2.375 -3.703125 C 3.082031 -4.648438 3.816406 -5.421875 4.578125 -6.015625 C 5.347656 -6.617188 6.101562 -6.921875 6.84375 -6.921875 C 7.476562 -6.921875 7.96875 -6.703125 8.3125 -6.265625 C 8.664062 -5.835938 8.84375 -5.320312 8.84375 -4.71875 C 8.84375 -4.375 8.796875 -4.039062 8.703125 -3.71875 C 8.617188 -3.40625 8.488281 -3.050781 8.3125 -2.65625 C 8.050781 -1.988281 7.921875 -1.488281 7.921875 -1.15625 C 7.921875 -0.925781 7.972656 -0.753906 8.078125 -0.640625 C 8.191406 -0.523438 8.328125 -0.46875 8.484375 -0.46875 C 9.003906 -0.46875 9.566406 -0.828125 10.171875 -1.546875 C 10.785156 -2.265625 11.335938 -3.113281 11.828125 -4.09375 L 12.234375 -3.765625 C 11.660156 -2.453125 11.03125 -1.414062 10.34375 -0.65625 C 9.65625 0.09375 8.867188 0.46875 7.984375 0.46875 Z M 7.984375 0.46875 "/></g></g></g><g fill="#000000" fill-opacity="1"><g transform="translate(279.7024, 117.223898)"><g><path d="M 2.15625 1.09375 C 1.425781 1.09375 0.851562 0.878906 0.4375 0.453125 C 0.03125 0.0351562 -0.171875 -0.582031 -0.171875 -1.40625 C -0.171875 -2.019531 -0.0507812 -2.800781 0.1875 -3.75 C 0.425781 -4.707031 0.742188 -5.722656 1.140625 -6.796875 C 0.722656 -6.878906 0.445312 -6.953125 0.3125 -7.015625 L 0.3125 -7.75 C 0.6875 -7.707031 1.066406 -7.664062 1.453125 -7.625 C 2.160156 -9.414062 2.921875 -10.953125 3.734375 -12.234375 C 4.546875 -13.515625 5.207031 -14.15625 5.71875 -14.15625 C 5.882812 -14.15625 6.035156 -14.085938 6.171875 -13.953125 C 6.304688 -13.828125 6.375 -13.664062 6.375 -13.46875 C 6.375 -13.207031 6.265625 -12.863281 6.046875 -12.4375 C 5.828125 -12.007812 5.460938 -11.363281 4.953125 -10.5 C 4.253906 -9.332031 3.707031 -8.351562 3.3125 -7.5625 C 5.132812 -7.5625 6.582031 -7.617188 7.65625 -7.734375 L 7.65625 -6.9375 C 5.789062 -6.75 4.203125 -6.65625 2.890625 -6.65625 C 2.066406 -4.71875 1.65625 -3.128906 1.65625 -1.890625 C 1.65625 -1.242188 1.757812 -0.785156 1.96875 -0.515625 C 2.175781 -0.253906 2.5 -0.125 2.9375 -0.125 C 3.726562 -0.125 4.535156 -0.484375 5.359375 -1.203125 C 6.191406 -1.921875 6.914062 -2.894531 7.53125 -4.125 L 7.875 -3.890625 C 7.21875 -2.421875 6.375 -1.222656 5.34375 -0.296875 C 4.320312 0.628906 3.257812 1.09375 2.15625 1.09375 Z M 2.15625 1.09375 "/></g></g></g></svg>